<svg width="135" height="157" viewBox="0 0 135 157" fill="none" xmlns="http://www.w3.org/2000/svg">
<path d="M37.0145 63.848H30.2287V82.9135H26.0421V63.848H19.2563V60.4084H37.0145V63.848Z" fill="white"/>
<path d="M44.1616 82.9135H39.9595V60.4084H44.1616V82.9135Z" fill="white"/>
<path d="M61.091 74.4157L58.3518 66.9296C58.2169 66.5975 58.0769 66.2033 57.9316 65.7467C57.7864 65.2902 57.6411 64.7973 57.4958 64.2682C57.3609 64.7973 57.2209 65.2954 57.0756 65.7623C56.9304 66.2188 56.7903 66.6183 56.6554 66.9607L53.9317 74.4157H61.091ZM68.4838 82.9135H65.2465C64.8834 82.9135 64.5877 82.8253 64.3594 82.6489C64.1311 82.4621 63.9599 82.2339 63.8458 81.9641L62.1649 77.3728H52.8423L51.1614 81.9641C51.0784 82.2027 50.9176 82.4206 50.6789 82.6178C50.4403 82.8149 50.1446 82.9135 49.7918 82.9135H46.5234L55.3792 60.4084H59.6436L68.4838 82.9135Z" fill="white"/>
<path d="M89.7854 60.4084V82.9135H87.6376C87.3056 82.9135 87.0254 82.8616 86.7971 82.7578C86.5793 82.6437 86.3665 82.4569 86.159 82.1975L74.4085 67.1941C74.4707 67.8789 74.5018 68.5119 74.5018 69.0929V82.9135H70.8132V60.4084H73.0077C73.1841 60.4084 73.3346 60.4188 73.4591 60.4395C73.594 60.4499 73.7081 60.481 73.8015 60.5329C73.9052 60.5744 74.0038 60.6418 74.0972 60.7352C74.1906 60.8182 74.2943 60.9324 74.4085 61.0776L86.2057 76.1433C86.1746 75.7801 86.1487 75.4221 86.1279 75.0694C86.1071 74.7166 86.0968 74.3898 86.0968 74.0889V60.4084H89.7854Z" fill="white"/>
<path d="M113.349 71.6298V80.7346C112.208 81.575 110.989 82.1924 109.692 82.5866C108.405 82.9705 107.025 83.1625 105.552 83.1625C103.715 83.1625 102.05 82.8772 100.556 82.3065C99.0719 81.7358 97.8009 80.9421 96.7426 79.9252C95.6946 78.9084 94.8853 77.6944 94.3146 76.2833C93.744 74.8722 93.4586 73.3314 93.4586 71.6609C93.4586 69.9697 93.7336 68.4185 94.2835 67.0074C94.8334 65.5963 95.6116 64.3823 96.6181 63.3655C97.6349 62.3487 98.8644 61.5601 100.307 60.9998C101.749 60.4395 103.368 60.1594 105.163 60.1594C106.076 60.1594 106.926 60.232 107.715 60.3773C108.514 60.5225 109.251 60.7248 109.925 60.9842C110.61 61.2333 111.232 61.5393 111.793 61.9025C112.353 62.2656 112.867 62.6651 113.333 63.1009L112.135 64.9997C111.948 65.3006 111.704 65.4873 111.404 65.56C111.103 65.6222 110.776 65.5444 110.423 65.3265C110.081 65.1294 109.738 64.9322 109.396 64.7351C109.053 64.5379 108.67 64.3667 108.244 64.2215C107.829 64.0762 107.357 63.9569 106.828 63.8635C106.309 63.7701 105.707 63.7234 105.022 63.7234C103.912 63.7234 102.906 63.9102 102.003 64.2837C101.111 64.6573 100.348 65.1916 99.7152 65.8868C99.0823 66.582 98.5947 67.4172 98.2523 68.3926C97.9099 69.3679 97.7386 70.4573 97.7386 71.6609C97.7386 72.9475 97.9202 74.0992 98.2834 75.1161C98.6569 76.1225 99.1757 76.9785 99.8398 77.6841C100.514 78.3792 101.323 78.9136 102.268 79.2871C103.212 79.6503 104.265 79.8319 105.427 79.8319C106.257 79.8319 106.999 79.7437 107.653 79.5673C108.306 79.3909 108.945 79.1522 109.567 78.8513V74.7737H106.734C106.465 74.7737 106.252 74.701 106.096 74.5558C105.951 74.4001 105.878 74.2134 105.878 73.9955V71.6298H113.349Z" fill="white"/>
<path d="M61.1897 116.915V137.31C58.6331 139.193 55.9021 140.576 52.9968 141.459C50.1147 142.319 47.0235 142.749 43.723 142.749C39.6091 142.749 35.8787 142.11 32.5318 140.832C29.2081 139.553 26.3609 137.775 23.9902 135.498C21.6427 133.22 19.8298 130.5 18.5514 127.339C17.2731 124.178 16.6339 120.727 16.6339 116.985C16.6339 113.196 17.2498 109.722 18.4817 106.561C19.7135 103.4 21.4567 100.68 23.7112 98.4026C25.989 96.1248 28.7432 94.3584 31.9739 93.1033C35.2047 91.8482 38.8305 91.2206 42.8514 91.2206C44.8968 91.2206 46.8026 91.3833 48.5691 91.7087C50.3587 92.0341 52.009 92.4874 53.5197 93.0684C55.0537 93.6262 56.4483 94.3119 57.7034 95.1254C58.9585 95.9389 60.109 96.8337 61.1549 97.8099L58.4704 102.063C58.052 102.737 57.5058 103.156 56.8318 103.318C56.1577 103.458 55.4256 103.283 54.6354 102.795C53.8684 102.354 53.1014 101.912 52.3344 101.471C51.5674 101.029 50.7074 100.645 49.7544 100.32C48.8247 99.9947 47.7672 99.7274 46.5818 99.5182C45.4197 99.309 44.0717 99.2044 42.5377 99.2044C40.0507 99.2044 37.7962 99.6228 35.7741 100.46C33.7752 101.296 32.0669 102.493 30.6491 104.05C29.2313 105.608 28.1389 107.479 27.3719 109.664C26.6049 111.848 26.2214 114.289 26.2214 116.985C26.2214 119.867 26.6282 122.447 27.4417 124.725C28.2784 126.979 29.4405 128.897 30.928 130.477C32.4388 132.034 34.2517 133.231 36.3668 134.068C38.4818 134.882 40.841 135.288 43.4441 135.288C45.3035 135.288 46.9653 135.091 48.4296 134.696C49.8939 134.301 51.3233 133.766 52.7179 133.092V123.958H46.3727C45.7684 123.958 45.2919 123.795 44.9432 123.47C44.6179 123.121 44.4552 122.703 44.4552 122.214V116.915H61.1897Z" fill="white"/>
<path d="M118.302 116.985C118.302 120.68 117.687 124.109 116.455 127.27C115.246 130.407 113.526 133.127 111.295 135.428C109.064 137.729 106.379 139.53 103.241 140.832C100.104 142.11 96.6173 142.749 92.7823 142.749C88.9705 142.749 85.4957 142.11 82.358 140.832C79.2203 139.53 76.5241 137.729 74.2696 135.428C72.0383 133.127 70.3068 130.407 69.0749 127.27C67.8431 124.109 67.2272 120.68 67.2272 116.985C67.2272 113.289 67.8431 109.873 69.0749 106.735C70.3068 103.574 72.0383 100.843 74.2696 98.542C76.5241 96.241 79.2203 94.4513 82.358 93.173C85.4957 91.8714 88.9705 91.2206 92.7823 91.2206C95.3389 91.2206 97.7445 91.5228 99.9991 92.1271C102.254 92.7082 104.322 93.5449 106.205 94.6373C108.087 95.7064 109.773 97.0196 111.26 98.5769C112.771 100.111 114.049 101.831 115.095 103.737C116.141 105.643 116.931 107.711 117.466 109.942C118.024 112.174 118.302 114.521 118.302 116.985ZM108.715 116.985C108.715 114.219 108.343 111.744 107.599 109.559C106.856 107.351 105.798 105.48 104.427 103.946C103.055 102.412 101.382 101.238 99.4064 100.425C97.454 99.6112 95.246 99.2044 92.7823 99.2044C90.3186 99.2044 88.0989 99.6112 86.1233 100.425C84.1709 101.238 82.4975 102.412 81.1029 103.946C79.7316 105.48 78.6741 107.351 77.9303 109.559C77.1866 111.744 76.8147 114.219 76.8147 116.985C76.8147 119.751 77.1866 122.238 77.9303 124.446C78.6741 126.631 79.7316 128.49 81.1029 130.024C82.4975 131.535 84.1709 132.697 86.1233 133.51C88.0989 134.324 90.3186 134.731 92.7823 134.731C95.246 134.731 97.454 134.324 99.4064 133.51C101.382 132.697 103.055 131.535 104.427 130.024C105.798 128.49 106.856 126.631 107.599 124.446C108.343 122.238 108.715 119.751 108.715 116.985Z" fill="white"/>
<path d="M0.0302124 32.7495H40.2698L55.8299 1.05524H37.0812L0.0302124 32.7495Z" fill="white"/>
<path d="M134.906 32.6857H94.6665L79.1063 1.05524H97.855L134.906 32.6857Z" fill="white"/>
<path d="M47.0295 32.7495H87.3328L73.8134 0.290039H61.5056L47.0295 32.7495Z" fill="white"/>
<path d="M40.3335 32.8133C40.3335 43.9094 31.3418 52.9649 20.1819 52.9649C9.02194 52.9649 0.0302124 43.9732 0.0302124 32.8133C0.0302124 32.7495 0.0302124 32.7495 0.0302124 32.6857H40.2698C40.3335 32.7495 40.3335 32.8133 40.3335 32.8133Z" fill="#E2E2E2"/>
<path d="M87.3328 32.8133C87.3328 43.9094 78.3411 52.9649 67.1812 52.9649C56.0212 52.9649 47.0295 43.9732 47.0295 32.8133C47.0295 32.7495 47.0295 32.7495 47.0295 32.6857H87.2691C87.3328 32.7495 87.3328 32.8133 87.3328 32.8133Z" fill="#E2E2E2"/>
<path d="M134.97 32.8133C134.97 43.9094 125.978 52.9649 114.818 52.9649C103.658 52.9649 94.6666 43.9732 94.6666 32.8133C94.6666 32.7495 94.6666 32.7495 94.6666 32.6857H134.906C134.97 32.7495 134.97 32.8133 134.97 32.8133Z" fill="#E2E2E2"/>
<path d="M134.842 154.361H0.0302124V156.465H134.842V154.361Z" fill="white"/>
</svg>
