<svg width="197" height="236" viewBox="0 0 197 236" fill="none" xmlns="http://www.w3.org/2000/svg">
<g filter="url(#filter0_d)">
<path d="M57.8297 118.827H84.8652V204.951L57.8297 217.559L57.8297 118.827Z" fill="url(#paint0_linear)"/>
<path d="M138.936 118.836H111.901V204.951L138.936 217.56V118.836Z" fill="url(#paint1_linear)"/>
<path d="M84.8652 118.833H111.901V204.952L98.7375 198.925L84.8652 204.952V118.833Z" fill="url(#paint2_linear)"/>
</g>
<g filter="url(#filter1_d)">
<path d="M93.9405 12.0872C96.3214 9.46438 100.445 9.46438 102.826 12.0872L112.666 22.927C114.306 24.7335 116.876 25.3671 119.168 24.5296L132.918 19.5044C136.245 18.2885 139.896 20.2046 140.786 23.6335L144.461 37.8046C145.074 40.1663 147.055 41.9219 149.474 42.2453L163.984 44.1859C167.496 44.6555 169.838 48.0487 169.032 51.4982L165.701 65.7542C165.146 68.13 166.084 70.6054 168.075 72.0156L180.022 80.4775C182.913 82.5249 183.41 86.618 181.093 89.2978L171.518 100.373C169.923 102.218 169.604 104.847 170.711 107.021L177.357 120.065C178.965 123.221 177.503 127.077 174.207 128.373L160.582 133.73C158.311 134.622 156.807 136.801 156.778 139.241L156.6 153.88C156.557 157.422 153.471 160.156 149.95 159.772L135.396 158.183C132.971 157.919 130.627 159.149 129.467 161.295L122.507 174.175C120.822 177.291 116.819 178.278 113.88 176.301L101.731 168.132C99.7067 166.77 97.0593 166.77 95.0347 168.132L82.8863 176.301C79.9468 178.278 75.9436 177.291 74.2594 174.175L67.2993 161.295C66.1394 159.149 63.7952 157.919 61.3698 158.183L46.8162 159.772C43.2947 160.156 40.2085 157.422 40.1656 153.88L39.9882 139.241C39.9587 136.801 38.4548 134.622 36.1841 133.73L22.5594 128.373C19.2627 127.077 17.8006 123.221 19.4087 120.065L26.0547 107.021C27.1623 104.847 26.8432 102.218 25.2475 100.373L15.6729 89.2978C13.3561 86.618 13.8531 82.525 16.7438 80.4775L28.6907 72.0156C30.6817 70.6054 31.6205 68.13 31.0653 65.7542L27.7342 51.4982C26.9282 48.0487 29.2704 44.6555 32.7815 44.1859L47.2923 42.2453C49.7106 41.9219 51.6923 40.1663 52.3048 37.8046L55.9804 23.6335C56.8697 20.2046 60.5206 18.2885 63.8477 19.5044L77.5983 24.5296C79.8898 25.3671 82.4604 24.7335 84.1003 22.927L93.9405 12.0872Z" fill="#F7CB30"/>
<path d="M93.9405 12.0872C96.3214 9.46438 100.445 9.46438 102.826 12.0872L112.666 22.927C114.306 24.7335 116.876 25.3671 119.168 24.5296L132.918 19.5044C136.245 18.2885 139.896 20.2046 140.786 23.6335L144.461 37.8046C145.074 40.1663 147.055 41.9219 149.474 42.2453L163.984 44.1859C167.496 44.6555 169.838 48.0487 169.032 51.4982L165.701 65.7542C165.146 68.13 166.084 70.6054 168.075 72.0156L180.022 80.4775C182.913 82.5249 183.41 86.618 181.093 89.2978L171.518 100.373C169.923 102.218 169.604 104.847 170.711 107.021L177.357 120.065C178.965 123.221 177.503 127.077 174.207 128.373L160.582 133.73C158.311 134.622 156.807 136.801 156.778 139.241L156.6 153.88C156.557 157.422 153.471 160.156 149.95 159.772L135.396 158.183C132.971 157.919 130.627 159.149 129.467 161.295L122.507 174.175C120.822 177.291 116.819 178.278 113.88 176.301L101.731 168.132C99.7067 166.77 97.0593 166.77 95.0347 168.132L82.8863 176.301C79.9468 178.278 75.9436 177.291 74.2594 174.175L67.2993 161.295C66.1394 159.149 63.7952 157.919 61.3698 158.183L46.8162 159.772C43.2947 160.156 40.2085 157.422 40.1656 153.88L39.9882 139.241C39.9587 136.801 38.4548 134.622 36.1841 133.73L22.5594 128.373C19.2627 127.077 17.8006 123.221 19.4087 120.065L26.0547 107.021C27.1623 104.847 26.8432 102.218 25.2475 100.373L15.6729 89.2978C13.3561 86.618 13.8531 82.525 16.7438 80.4775L28.6907 72.0156C30.6817 70.6054 31.6205 68.13 31.0653 65.7542L27.7342 51.4982C26.9282 48.0487 29.2704 44.6555 32.7815 44.1859L47.2923 42.2453C49.7106 41.9219 51.6923 40.1663 52.3048 37.8046L55.9804 23.6335C56.8697 20.2046 60.5206 18.2885 63.8477 19.5044L77.5983 24.5296C79.8898 25.3671 82.4604 24.7335 84.1003 22.927L93.9405 12.0872Z" fill="url(#paint3_linear)"/>
</g>
<g filter="url(#filter2_i)">
<circle cx="98.3827" cy="94.8654" r="54.0687" stroke="#F16D23" stroke-opacity="0.15" stroke-width="5"/>
</g>
<rect x="79.7148" y="110.896" width="36.9218" height="5.7222" fill="#FFF1C7"/>
<path d="M76.7336 81.1476L88.9453 92.1836L98.1757 77.2645L107.406 92.1836L119.618 81.1475L116.637 108.941H79.7148L76.7336 81.1476Z" fill="#FFF1C7"/>
<circle cx="76.7336" cy="80.1727" r="2.78835" fill="#FFF1C7"/>
<circle cx="120.032" cy="80.1727" r="2.78835" fill="#FFF1C7"/>
<circle cx="98.1758" cy="75.9014" r="2.78835" fill="#FFF1C7"/>
<defs>
<filter id="filter0_d" x="43.8297" y="108.827" width="109.107" height="126.733" filterUnits="userSpaceOnUse" color-interpolation-filters="sRGB">
<feFlood flood-opacity="0" result="BackgroundImageFix"/>
<feColorMatrix in="SourceAlpha" type="matrix" values="0 0 0 0 0 0 0 0 0 0 0 0 0 0 0 0 0 0 127 0"/>
<feOffset dy="4"/>
<feGaussianBlur stdDeviation="7"/>
<feColorMatrix type="matrix" values="0 0 0 0 0 0 0 0 0 0 0 0 0 0 0 0 0 0 0.25 0"/>
<feBlend mode="normal" in2="BackgroundImageFix" result="effect1_dropShadow"/>
<feBlend mode="normal" in="SourceGraphic" in2="effect1_dropShadow" result="shape"/>
</filter>
<filter id="filter1_d" x="0.211487" y="0.120087" width="196.343" height="195.204" filterUnits="userSpaceOnUse" color-interpolation-filters="sRGB">
<feFlood flood-opacity="0" result="BackgroundImageFix"/>
<feColorMatrix in="SourceAlpha" type="matrix" values="0 0 0 0 0 0 0 0 0 0 0 0 0 0 0 0 0 0 127 0"/>
<feOffset dy="4"/>
<feGaussianBlur stdDeviation="7"/>
<feColorMatrix type="matrix" values="0 0 0 0 0 0 0 0 0 0 0 0 0 0 0 0 0 0 0.25 0"/>
<feBlend mode="normal" in2="BackgroundImageFix" result="effect1_dropShadow"/>
<feBlend mode="normal" in="SourceGraphic" in2="effect1_dropShadow" result="shape"/>
</filter>
<filter id="filter2_i" x="41.814" y="38.2968" width="113.137" height="113.137" filterUnits="userSpaceOnUse" color-interpolation-filters="sRGB">
<feFlood flood-opacity="0" result="BackgroundImageFix"/>
<feBlend mode="normal" in="SourceGraphic" in2="BackgroundImageFix" result="shape"/>
<feColorMatrix in="SourceAlpha" type="matrix" values="0 0 0 0 0 0 0 0 0 0 0 0 0 0 0 0 0 0 127 0" result="hardAlpha"/>
<feOffset/>
<feGaussianBlur stdDeviation="3"/>
<feComposite in2="hardAlpha" operator="arithmetic" k2="-1" k3="1"/>
<feColorMatrix type="matrix" values="0 0 0 0 0 0 0 0 0 0 0 0 0 0 0 0 0 0 0.07 0"/>
<feBlend mode="normal" in2="shape" result="effect1_innerShadow"/>
</filter>
<linearGradient id="paint0_linear" x1="57.8297" y1="145.89" x2="59.4427" y2="195.327" gradientUnits="userSpaceOnUse">
<stop stop-color="#620EA6"/>
<stop offset="1" stop-color="#7A03D9"/>
</linearGradient>
<linearGradient id="paint1_linear" x1="138.936" y1="145.89" x2="137.323" y2="195.327" gradientUnits="userSpaceOnUse">
<stop stop-color="#620EA6"/>
<stop offset="1" stop-color="#7A03D9"/>
</linearGradient>
<linearGradient id="paint2_linear" x1="98.383" y1="145.89" x2="98.383" y2="204.951" gradientUnits="userSpaceOnUse">
<stop stop-color="#E6E6E6"/>
<stop offset="1" stop-color="white"/>
</linearGradient>
<linearGradient id="paint3_linear" x1="141.4" y1="85.2156" x2="57.4866" y2="-31.331" gradientUnits="userSpaceOnUse">
<stop stop-color="#F6CB30"/>
<stop offset="1" stop-color="white" stop-opacity="0"/>
</linearGradient>
</defs>
</svg>
