<?xml version="1.0" encoding="utf-8"?>
<!-- Generator: Adobe Illustrator 23.0.1, SVG Export Plug-In . SVG Version: 6.00 Build 0)  -->
<svg version="1.1" id="Layer_1" xmlns="http://www.w3.org/2000/svg" xmlns:xlink="http://www.w3.org/1999/xlink" x="0px" y="0px"
	 viewBox="0 0 375 433" style="enable-background:new 0 0 375 433;" xml:space="preserve">
<style type="text/css">
	.st0{fill-rule:evenodd;clip-rule:evenodd;fill:#EC2B38;fill-opacity:0.6;}
	.st1{fill-rule:evenodd;clip-rule:evenodd;fill:#ED3944;}
	.st2{fill:#ED3944;}
	.st3{fill:#FFFFFF;}
	.st4{fill:#E2E2E2;}
	.st5{fill:none;}
</style>
<path class="st0" d="M-212.3,293.7c0,0,21.2,8.2,32.1,15.1c37.2,23.3,73.8,70,111,96.6c37.2,26.7,73.8,33.3,111,20
	c37.2-13.3,73.9-46.6,111.1-53.3s73.8,13.3,111.1,16.7c37.2,3.3,73.9-10,92.7-16.6l18.3-6.7l0-99.9l-18.3,0c-18.9,0-55.5,0-92.7,0
	c-37.2,0-73.9,0-111.1,0c-37.2,0-73.8,0-111.1,0c-37.2,0-73.8,0-111.1,0c-37.2,0-73.8,0-111.1,0c-10.9,0-32.1,0-32.1,0L-212.3,293.7
	z"/>
<path class="st0" d="M454,339.5l-22.2,20c-22.2,20-66.6,60-111.1,70s-88.8-10-133.3-36.7c-44.4-26.7-88.8-60-133.3-63.3
	c-44.4-3.3-88.8,23.3-133.3,30c-44.4,6.7-88.8-6.7-111.1-13.3l-22.2-6.7l0-60l22.2,0c22.2,0,66.6,0,111.1,0c44.4,0,88.8,0,133.3,0
	c44.4,0,88.8,0,133.3,0c44.4,0,88.8,0,133.3,0c44.4,0,88.8,0,111.1,0l22.2,0L454,339.5z"/>
<path class="st1" d="M634,338.5l-22.2,20c-22.2,20-66.6,60-111.1,70s-88.8-10-133.3-36.7c-44.4-26.7-88.8-60-133.3-63.3
	c-44.4-3.3-88.8,23.3-133.3,30c-44.4,6.7-88.8-6.7-111.1-13.3l-24.4-9.8c-24.2-9.7-47-22.4-68.1-37.8l-26-19h96.3l22.2,0
	c22.2,0,66.6,0,111.1,0c44.4,0,88.8,0,133.3,0c44.4,0,88.8,0,133.3,0c44.4,0,88.8,0,133.3,0c44.4,0,88.8,0,111.1,0l22.2,0L634,338.5
	z"/>
<rect x="-212.3" class="st2" width="846.3" height="279.5"/>
<path class="st3" d="M157,172.8h-6.8v19.1H146v-19.1h-6.8v-3.4H157V172.8z"/>
<path class="st3" d="M164.2,191.9H160v-22.5h4.2V191.9z"/>
<path class="st3" d="M181.1,183.4l-2.7-7.5c-0.1-0.3-0.3-0.7-0.4-1.2c-0.1-0.5-0.3-0.9-0.4-1.5c-0.1,0.5-0.3,1-0.4,1.5
	c-0.1,0.5-0.3,0.9-0.4,1.2l-2.7,7.5H181.1z M188.5,191.9h-3.2c-0.4,0-0.7-0.1-0.9-0.3c-0.2-0.2-0.4-0.4-0.5-0.7l-1.7-4.6h-9.3
	l-1.7,4.6c-0.1,0.2-0.2,0.5-0.5,0.7c-0.2,0.2-0.5,0.3-0.9,0.3h-3.3l8.9-22.5h4.3L188.5,191.9z"/>
<path class="st3" d="M209.8,169.4v22.5h-2.1c-0.3,0-0.6-0.1-0.8-0.2c-0.2-0.1-0.4-0.3-0.6-0.6l-11.8-15c0.1,0.7,0.1,1.3,0.1,1.9
	v13.8h-3.7v-22.5h2.2c0.2,0,0.3,0,0.5,0c0.1,0,0.2,0,0.3,0.1c0.1,0,0.2,0.1,0.3,0.2c0.1,0.1,0.2,0.2,0.3,0.3l11.8,15.1
	c0-0.4-0.1-0.7-0.1-1.1c0-0.4,0-0.7,0-1v-13.7H209.8z"/>
<path class="st3" d="M233.3,180.6v9.1c-1.1,0.8-2.4,1.5-3.7,1.9c-1.3,0.4-2.7,0.6-4.1,0.6c-1.8,0-3.5-0.3-5-0.9
	c-1.5-0.6-2.8-1.4-3.8-2.4c-1-1-1.9-2.2-2.4-3.6c-0.6-1.4-0.9-3-0.9-4.6c0-1.7,0.3-3.2,0.8-4.7c0.5-1.4,1.3-2.6,2.3-3.6
	c1-1,2.2-1.8,3.7-2.4c1.4-0.6,3.1-0.8,4.9-0.8c0.9,0,1.8,0.1,2.6,0.2c0.8,0.1,1.5,0.3,2.2,0.6c0.7,0.2,1.3,0.6,1.9,0.9
	c0.6,0.4,1.1,0.8,1.5,1.2l-1.2,1.9c-0.2,0.3-0.4,0.5-0.7,0.6c-0.3,0.1-0.6,0-1-0.2c-0.3-0.2-0.7-0.4-1-0.6c-0.3-0.2-0.7-0.4-1.2-0.5
	c-0.4-0.1-0.9-0.3-1.4-0.4c-0.5-0.1-1.1-0.1-1.8-0.1c-1.1,0-2.1,0.2-3,0.6c-0.9,0.4-1.7,0.9-2.3,1.6c-0.6,0.7-1.1,1.5-1.5,2.5
	c-0.3,1-0.5,2.1-0.5,3.3c0,1.3,0.2,2.4,0.5,3.5c0.4,1,0.9,1.9,1.6,2.6c0.7,0.7,1.5,1.2,2.4,1.6c0.9,0.4,2,0.5,3.2,0.5
	c0.8,0,1.6-0.1,2.2-0.3c0.7-0.2,1.3-0.4,1.9-0.7v-4.1h-2.8c-0.3,0-0.5-0.1-0.6-0.2c-0.1-0.2-0.2-0.3-0.2-0.6v-2.4H233.3z"/>
<path class="st3" d="M181.2,225.9v20.4c-2.6,1.9-5.3,3.3-8.2,4.1c-2.9,0.9-6,1.3-9.3,1.3c-4.1,0-7.8-0.6-11.2-1.9
	c-3.3-1.3-6.2-3.1-8.5-5.3c-2.3-2.3-4.2-5-5.4-8.2c-1.3-3.2-1.9-6.6-1.9-10.4c0-3.8,0.6-7.3,1.8-10.4c1.2-3.2,3-5.9,5.2-8.2
	c2.3-2.3,5-4,8.3-5.3c3.2-1.3,6.9-1.9,10.9-1.9c2,0,4,0.2,5.7,0.5c1.8,0.3,3.4,0.8,5,1.4c1.5,0.6,2.9,1.2,4.2,2.1
	c1.3,0.8,2.4,1.7,3.5,2.7l-2.7,4.3c-0.4,0.7-1,1.1-1.6,1.3c-0.7,0.1-1.4,0-2.2-0.5c-0.8-0.4-1.5-0.9-2.3-1.3
	c-0.8-0.4-1.6-0.8-2.6-1.2c-0.9-0.3-2-0.6-3.2-0.8c-1.2-0.2-2.5-0.3-4-0.3c-2.5,0-4.7,0.4-6.8,1.3c-2,0.8-3.7,2-5.1,3.6
	c-1.4,1.6-2.5,3.4-3.3,5.6c-0.8,2.2-1.2,4.6-1.2,7.3c0,2.9,0.4,5.5,1.2,7.7c0.8,2.3,2,4.2,3.5,5.8c1.5,1.6,3.3,2.8,5.4,3.6
	c2.1,0.8,4.5,1.2,7.1,1.2c1.9,0,3.5-0.2,5-0.6c1.5-0.4,2.9-0.9,4.3-1.6V233h-6.3c-0.6,0-1.1-0.2-1.4-0.5c-0.3-0.3-0.5-0.8-0.5-1.3
	v-5.3H181.2z"/>
<path class="st3" d="M238.3,226c0,3.7-0.6,7.1-1.8,10.3c-1.2,3.1-2.9,5.9-5.2,8.2c-2.2,2.3-4.9,4.1-8.1,5.4
	c-3.1,1.3-6.6,1.9-10.5,1.9c-3.8,0-7.3-0.6-10.4-1.9c-3.1-1.3-5.8-3.1-8.1-5.4c-2.2-2.3-4-5-5.2-8.2c-1.2-3.2-1.8-6.6-1.8-10.3
	c0-3.7,0.6-7.1,1.8-10.2c1.2-3.2,3-5.9,5.2-8.2c2.3-2.3,4.9-4.1,8.1-5.4c3.1-1.3,6.6-2,10.4-2c2.6,0,5,0.3,7.2,0.9
	c2.3,0.6,4.3,1.4,6.2,2.5c1.9,1.1,3.6,2.4,5.1,3.9c1.5,1.5,2.8,3.3,3.8,5.2s1.8,4,2.4,6.2C238,221.2,238.3,223.5,238.3,226z
	 M228.7,226c0-2.8-0.4-5.2-1.1-7.4c-0.7-2.2-1.8-4.1-3.2-5.6c-1.4-1.5-3-2.7-5-3.5c-2-0.8-4.2-1.2-6.6-1.2c-2.5,0-4.7,0.4-6.7,1.2
	c-2,0.8-3.6,2-5,3.5c-1.4,1.5-2.4,3.4-3.2,5.6c-0.7,2.2-1.1,4.7-1.1,7.4s0.4,5.3,1.1,7.5c0.7,2.2,1.8,4,3.2,5.6
	c1.4,1.5,3.1,2.7,5,3.5c2,0.8,4.2,1.2,6.7,1.2c2.5,0,4.7-0.4,6.6-1.2c2-0.8,3.6-2,5-3.5c1.4-1.5,2.4-3.4,3.2-5.6
	C228.3,231.2,228.7,228.8,228.7,226z"/>
<path class="st3" d="M120,141.7h40.2l15.6-31.7h-18.7L120,141.7z"/>
<path class="st3" d="M254.9,141.7h-40.2l-15.6-31.6h18.7L254.9,141.7z"/>
<path class="st3" d="M167,141.8h40.3l-13.5-32.5h-12.3L167,141.8z"/>
<path class="st4" d="M160.3,141.8c0,11.1-9,20.2-20.2,20.2c-11.2,0-20.2-9-20.2-20.2c0-0.1,0-0.1,0-0.1h40.2
	C160.3,141.8,160.3,141.8,160.3,141.8z"/>
<path class="st4" d="M207.3,141.8c0,11.1-9,20.2-20.2,20.2s-20.2-9-20.2-20.2c0-0.1,0-0.1,0-0.1h40.2
	C207.3,141.8,207.3,141.8,207.3,141.8z"/>
<path class="st4" d="M255,141.8c0,11.1-9,20.2-20.2,20.2c-11.2,0-20.2-9-20.2-20.2c0-0.1,0-0.1,0-0.1h40.2
	C255,141.8,255,141.8,255,141.8z"/>
<path class="st3" d="M254.8,263.4H120v2.1h134.8V263.4z"/>
<rect class="st5" width="375" height="432.1"/>
</svg>
