<svg width="18" height="19" viewBox="0 0 18 19" fill="none" xmlns="http://www.w3.org/2000/svg">
<path d="M17.6234 16.4706L13.5805 12.4277C14.5538 11.1319 15.0793 9.55466 15.0775 7.93401C15.0775 3.7944 11.7096 0.426514 7.57 0.426514C3.43039 0.426514 0.0625 3.7944 0.0625 7.93401C0.0625 12.0736 3.43039 15.4415 7.57 15.4415C9.19064 15.4433 10.7679 14.9178 12.0637 13.9445L16.1066 17.9874C16.3113 18.1704 16.5782 18.268 16.8526 18.2603C17.127 18.2527 17.388 18.1402 17.5821 17.9461C17.7762 17.752 17.8886 17.491 17.8963 17.2166C17.904 16.9422 17.8063 16.6753 17.6234 16.4706ZM2.2075 7.93401C2.2075 6.87341 2.52201 5.83663 3.11124 4.95477C3.70048 4.07291 4.53799 3.38558 5.51786 2.97971C6.49773 2.57383 7.57595 2.46764 8.61617 2.67455C9.65639 2.88147 10.6119 3.39219 11.3619 4.14215C12.1118 4.89211 12.6225 5.84762 12.8295 6.88784C13.0364 7.92806 12.9302 9.00628 12.5243 9.98615C12.1184 10.966 11.4311 11.8035 10.5492 12.3928C9.66739 12.982 8.6306 13.2965 7.57 13.2965C6.1483 13.2948 4.78532 12.7293 3.78002 11.724C2.77473 10.7187 2.20921 9.35571 2.2075 7.93401Z" fill="#474747"/>
</svg>
