<svg width="375" height="433" viewBox="0 0 375 433" fill="none" xmlns="http://www.w3.org/2000/svg">
<path fill-rule="evenodd" clip-rule="evenodd" d="M-291.294 285.455L-272.971 285.457C-254.092 285.459 -217.445 285.463 -180.245 308.788C-143.045 332.113 -106.403 378.759 -69.204 405.415C-32.0046 432.072 4.64175 438.739 41.8456 425.417C79.0494 412.095 115.7 378.783 152.903 372.124C190.106 365.465 226.751 385.459 263.953 388.794C301.155 392.13 337.804 378.808 356.683 372.147L375.007 365.486L375.018 265.539L356.695 265.537C337.816 265.535 301.169 265.531 263.967 265.527C226.764 265.523 190.117 265.519 152.915 265.515C115.713 265.51 79.0656 265.506 41.8633 265.502C4.66092 265.498 -31.9861 265.494 -69.1885 265.49C-106.391 265.486 -143.038 265.482 -180.24 265.478C-217.443 265.474 -254.09 265.469 -272.968 265.467L-291.292 265.465L-291.294 285.455Z" fill="#EC2B38" fill-opacity="0.6"/>
<path fill-rule="evenodd" clip-rule="evenodd" d="M453.972 339.546L431.76 359.533C409.547 379.52 365.122 419.493 320.7 429.483C276.278 439.473 231.86 419.479 187.442 392.821C143.024 366.164 98.6074 332.844 54.1871 329.507C9.76679 326.171 -34.6568 352.818 -79.0783 359.476C-123.5 366.135 -167.919 352.803 -190.129 346.138L-212.338 339.472L-212.332 279.504L-190.121 279.507C-167.911 279.509 -123.49 279.514 -79.0694 279.519C-34.6487 279.524 9.77195 279.529 54.1926 279.534C98.6133 279.539 143.034 279.544 187.455 279.549C231.875 279.554 276.296 279.558 320.717 279.563C365.137 279.568 409.558 279.573 431.769 279.576L453.979 279.578L453.972 339.546Z" fill="#EC2B38" fill-opacity="0.6"/>
<path fill-rule="evenodd" clip-rule="evenodd" d="M633.972 338.546L611.76 358.533C589.547 378.52 545.122 418.493 500.7 428.483C456.278 438.473 411.86 418.479 367.442 391.821C323.025 365.164 278.607 331.844 234.187 328.507C189.767 325.171 145.343 351.818 100.922 358.476C56.5003 365.135 12.0811 351.803 -10.1285 345.138L-32.3381 338.472L-32.3314 278.504L-10.1211 278.507C12.0892 278.509 56.5099 278.514 100.931 278.519C145.351 278.524 189.772 278.529 234.193 278.534C278.613 278.539 323.034 278.544 367.455 278.549C411.875 278.554 456.296 278.558 500.717 278.563C545.138 278.568 589.558 278.573 611.769 278.576L633.979 278.578L633.972 338.546Z" fill="#ED3944"/>
<rect width="375" height="279.504" fill="#ED3944"/>
</svg>
